<svg xmlns="http://www.w3.org/2000/svg" width="480" height="240" viewBox="0 0 480 240">
  <rect width="480" height="240" fill="none"/>
  <g fill="#eaf8ff">
    <ellipse cx="36" cy="20" rx="11" ry="3" opacity="0.46"/>
    <ellipse cx="118" cy="68" rx="7" ry="2.3" opacity="0.30"/>
    <ellipse cx="196" cy="32" rx="13" ry="3.6" opacity="0.42"/>
    <ellipse cx="284" cy="104" rx="9" ry="2.5" opacity="0.32"/>
    <ellipse cx="392" cy="54" rx="15" ry="4" opacity="0.44"/>
    <ellipse cx="450" cy="138" rx="7" ry="2" opacity="0.24"/>
    <ellipse cx="78" cy="170" rx="14" ry="3.5" opacity="0.38"/>
    <ellipse cx="230" cy="204" rx="8" ry="2.2" opacity="0.28"/>
    <ellipse cx="344" cy="188" rx="12" ry="3.2" opacity="0.34"/>
  </g>
  <g fill="#7dbbff">
    <ellipse cx="64" cy="96" rx="5" ry="10" opacity="0.23"/>
    <ellipse cx="160" cy="142" rx="4" ry="8" opacity="0.18"/>
    <ellipse cx="318" cy="28" rx="5" ry="11" opacity="0.22"/>
    <ellipse cx="418" cy="206" rx="4" ry="9" opacity="0.18"/>
  </g>
  <g fill="#d9eaff">
    <ellipse cx="16" cy="214" rx="6" ry="1.8" opacity="0.20"/>
    <ellipse cx="136" cy="220" rx="9" ry="2.4" opacity="0.24"/>
    <ellipse cx="258" cy="152" rx="6" ry="1.8" opacity="0.20"/>
    <ellipse cx="468" cy="16" rx="8" ry="2.1" opacity="0.24"/>
  </g>
</svg>
